# xmcd
#
# Track frame offsets: 
#        150
#        22174
#        29629
#        48197
#        63653
#        76648
#        102627
#        124845
#        142601
#        160048
#        190677
#        218270
#
# Disc length: 3374 seconds
#
# Revision: 0
# Processed by: cddbd v1.5.1PL0 Copyright (c) Steve Scherf et al.
# Submitted via: ExactAudioCopy v0.90b4
#
DISCID=970d2c0c
DTITLE=Various Artist - Mighty Crazy
DYEAR=2001
DGENRE=Blues
TTITLE0=Lightnin' Hopkins - I Love My Biscuits
TTITLE1=Lightnin' Hopkins - Key to the Highway
TTITLE2=Lightnin' Hopkins - Come In
TTITLE3=Lightnin' Hopkins - Messin' Around
TTITLE4=Lightnin' Hopkins - Mighty Crazy
TTITLE5=Lightnin' Hopkins - Lightnin' Does It
TTITLE6=Lightnin' Hopkins - Lawd Have Mercy
TTITLE7=Lightnin' Hopkins - Catfish Blues
TTITLE8=Big Mama Thornton - Early One Morning
TTITLE9=Big Mama Thornton - Rock Me Baby
TTITLE10=Big Mama Thornton - Hound Dog
TTITLE11=Big Mama Thornton - Ball and Chain
EXTD=
EXTT0=
EXTT1=
EXTT2=
EXTT3=
EXTT4=
EXTT5=
EXTT6=
EXTT7=
EXTT8=
EXTT9=
EXTT10=
EXTT11=
PLAYORDER=
